<?xml version="1.0" encoding="UTF-8"?>
<svg xmlns="http://www.w3.org/2000/svg" version="1.1" viewBox="0 0 72.59 21">
  <defs>
    <style>
      .cls-1 {
        fill: #021f3a;
      }
    </style>
  </defs>
  <!-- Generator: Adobe Illustrator 28.7.1, SVG Export Plug-In . SVG Version: 1.2.0 Build 142)  -->
  <g>
    <g id="Layer_1">
      <g>
        <g>
          <path class="cls-1" d="M.29,5.63.29,4.48v1.15c3.82,0,6.92,3.11,6.92,6.92s-3.11,6.92-6.92,6.92v1.15c4.46,0,8.08-3.62,8.08-8.08S4.75,4.48.29,4.48H.29"/>
          <path class="cls-1" d="M.29,8.73.29,8.73c2.11,0,3.82,1.71,3.82,3.82s-1.71,3.82-3.82,3.82v.87c2.59,0,4.69-2.1,4.69-4.69S2.88,7.87.29,7.87H.29"/>
          <path class="cls-1" d="M4.4.37c0,4.46,3.62,8.08,8.08,8.08v-1.15c-3.82,0-6.92-3.11-6.92-6.92h-1.15Z"/>
          <path class="cls-1" d="M7.79.37c0,2.59,2.1,4.69,4.69,4.69v-.87c-2.11,0-3.82-1.71-3.82-3.82h-.87Z"/>
        </g>
        <g>
          <path class="cls-1" d="M19.41,17.91c-2.99,0-4.95-1.43-4.95-4.09v-.18c0-2.6,1.85-4.01,5.44-4.01h3.36v-2c0-2.68-1.02-3.78-3.1-3.78s-3.02,1.07-3.02,3.46v.73h-1.85v-.83c0-2.73,2.21-4.14,4.74-4.14h.26c2.76,0,4.92,1.56,4.92,5v9.58h-1.85l-.05-1.95c-.65,1.28-1.93,2.21-3.78,2.21h-.13ZM16.52,14.44c.16,1.85,1.28,2.68,3.02,2.68,2.13,0,3.72-1.67,3.72-4.43v-2.29h-3.36c-2.45,0-3.41,1.02-3.41,3.1v.44l.03.49Z"/>
          <path class="cls-1" d="M32.61,17.91c-2.89,0-5.05-1.56-5.05-5.21V3.33h1.95v9.74c0,2.89,1.07,4.06,3.18,4.06s3.75-1.82,3.75-4.63V3.33h1.95v14.32h-1.85l-.05-2.08c-.7,1.48-2.16,2.34-3.75,2.34h-.13Z"/>
          <path class="cls-1" d="M41,3.33h1.85l.05,3.46c.55-1.93,1.95-3.46,3.98-3.46h1.09v1.46h-1.25c-2.32,0-3.83,1.77-3.83,5.42v7.45h-1.9V3.33Z"/>
          <path class="cls-1" d="M54.46,17.91h-.26c-3.07,0-5.44-1.98-5.44-6.17v-2.5c0-4.19,2.37-6.17,5.44-6.17h.26c3.12,0,5.47,1.8,5.47,5.47v1.54h-9.14v2.13c0,3.28,1.12,4.92,3.54,4.92s3.75-1.02,3.75-3.41v-1.54h1.85v1.07c0,3.2-2.45,4.66-5.47,4.66ZM57.97,7.57c-.13-2.53-1.33-3.72-3.65-3.72s-3.54,1.64-3.54,4.92v.52h7.19v-1.72Z"/>
          <path class="cls-1" d="M63.6,14.31c0,1.87.99,2.81,3.44,2.81s3.57-.99,3.57-2.68v-.16c0-1.12-.7-1.85-2.08-2.32l-2.94-1.02c-2.42-.83-3.36-2.08-3.36-3.98v-.13c0-2.27,2.03-3.78,4.74-3.78h.26c2.76,0,4.76,1.38,4.76,3.91v.7h-1.8v-1.02c0-1.87-.99-2.81-3.1-2.81s-3.23.99-3.23,2.68v.16c0,1.12.7,1.85,2.08,2.32l3.02,1.02c2.42.81,3.33,2.08,3.33,3.93v.18c0,2.27-2.08,3.78-5.13,3.78h-.26c-3.1,0-5.16-1.38-5.16-3.91v-.96h1.85v1.28Z"/>
        </g>
      </g>
    </g>
  </g>
</svg>