<?xml version="1.0" encoding="UTF-8"?>
<svg id="Layer_1" xmlns="http://www.w3.org/2000/svg" viewBox="0 0 158.5 45">
  <defs>
    <style>
      .cls-1 {
        fill: #fffef4;
      }
    </style>
  </defs>
  <g>
    <path class="cls-1" d="M.67,11.53.67,9v2.53c8.36,0,15.16,6.8,15.16,15.16s-6.8,15.16-15.16,15.16v2.53c9.77,0,17.69-7.92,17.69-17.69S10.43,9,.67,9h0"/>
    <path class="cls-1" d="M.67,18.32.67,18.32c4.62,0,8.37,3.75,8.37,8.37s-3.75,8.37-8.37,8.37v1.9c5.67,0,10.27-4.6,10.27-10.27S6.33,16.42.67,16.42h0"/>
    <path class="cls-1" d="M9.67,0c0,9.77,7.92,17.69,17.69,17.69v-2.53C19,15.16,12.19,8.36,12.19,0h-2.53Z"/>
    <path class="cls-1" d="M17.09,0c0,5.67,4.6,10.27,10.27,10.27v-1.9C22.74,8.37,18.98,4.62,18.98,0h-1.9Z"/>
  </g>
  <g>
    <path class="cls-1" d="M42.54,38.41c-6.56,0-10.83-3.14-10.83-8.95v-.4c0-5.7,4.05-8.78,11.92-8.78h7.36v-4.39c0-5.87-2.22-8.27-6.78-8.27s-6.61,2.34-6.61,7.58v1.6h-4.05v-1.82c0-5.99,4.85-9.07,10.38-9.07h.57c6.04,0,10.78,3.42,10.78,10.95v20.98h-4.05l-.11-4.28c-1.43,2.79-4.22,4.85-8.27,4.85h-.29ZM36.21,30.82c.34,4.05,2.79,5.87,6.61,5.87,4.68,0,8.15-3.65,8.15-9.69v-5.02h-7.36c-5.36,0-7.47,2.22-7.47,6.78v.97l.06,1.08Z"/>
    <path class="cls-1" d="M71.44,38.41c-6.33,0-11.06-3.42-11.06-11.4V6.48h4.28v21.32c0,6.33,2.34,8.89,6.96,8.89s8.21-3.99,8.21-10.15V6.48h4.28v31.36h-4.05l-.11-4.56c-1.54,3.25-4.73,5.13-8.21,5.13h-.29Z"/>
    <path class="cls-1" d="M89.8,6.48h4.05l.11,7.58c1.2-4.22,4.28-7.58,8.72-7.58h2.39v3.19h-2.74c-5.07,0-8.38,3.88-8.38,11.86v16.31h-4.16V6.48Z"/>
    <path class="cls-1" d="M119.28,38.41h-.57c-6.73,0-11.92-4.33-11.92-13.51v-5.47c0-9.18,5.19-13.51,11.92-13.51h.57c6.84,0,11.97,3.93,11.97,11.97v3.36h-20.01v4.68c0,7.18,2.45,10.78,7.75,10.78s8.21-2.22,8.21-7.47v-3.36h4.05v2.34c0,7.01-5.36,10.21-11.97,10.21ZM126.98,15.77c-.29-5.53-2.91-8.15-7.98-8.15s-7.75,3.59-7.75,10.78v1.14h15.74v-3.76Z"/>
    <path class="cls-1" d="M139.29,30.54c0,4.11,2.17,6.16,7.53,6.16s7.81-2.17,7.81-5.87v-.34c0-2.45-1.54-4.05-4.56-5.07l-6.44-2.22c-5.3-1.82-7.36-4.56-7.36-8.72v-.29c0-4.96,4.45-8.27,10.38-8.27h.57c6.04,0,10.43,3.02,10.43,8.55v1.54h-3.93v-2.22c0-4.11-2.17-6.16-6.78-6.16s-7.07,2.17-7.07,5.87v.34c0,2.45,1.54,4.05,4.56,5.07l6.61,2.22c5.3,1.77,7.3,4.56,7.3,8.61v.4c0,4.96-4.56,8.27-11.23,8.27h-.57c-6.78,0-11.29-3.02-11.29-8.55v-2.11h4.05v2.79Z"/>
  </g>
</svg>