<?xml version="1.0" encoding="UTF-8"?>
<svg xmlns="http://www.w3.org/2000/svg" version="1.1" viewBox="0 0 55.4 21">
  <defs>
    <style>
      .cls-1 {
        fill: #fffef4;
      }
    </style>
  </defs>
  <!-- Generator: Adobe Illustrator 28.7.1, SVG Export Plug-In . SVG Version: 1.2.0 Build 142)  -->
  <g>
    <g id="Layer_1">
      <g id="Layer_1-2" data-name="Layer_1">
        <g>
          <g>
            <path class="cls-1" d="M1,6.9v-.9.9c2.8,0,5.1,2.3,5.1,5.1s-2.3,5.1-5.1,5.1v.9c3.3,0,6-2.7,6-6S4.3,6,1,6h0"/>
            <path class="cls-1" d="M1,9.2h0c1.6,0,2.8,1.3,2.8,2.8s-1.3,2.8-2.8,2.8v.6c1.9,0,3.5-1.6,3.5-3.5s-1.6-3.5-3.5-3.5h0"/>
            <path class="cls-1" d="M4,3c0,3.3,2.7,6,6,6v-.9c-2.8,0-5.1-2.3-5.1-5.1,0,0-.9,0-.9,0Z"/>
            <path class="cls-1" d="M6.5,3c0,1.9,1.6,3.5,3.5,3.5v-.6c-1.6,0-2.8-1.3-2.8-2.8h-.7Z"/>
          </g>
          <g>
            <path class="cls-1" d="M15.2,16c-2.2,0-3.7-1.1-3.7-3h0c0-2.1,1.4-3.1,4-3.1h2.5v-1.5c0-2-.8-2.8-2.3-2.8s-2.2.8-2.2,2.6v.5h-1.4v-.6c0-2,1.6-3.1,3.5-3.1h.2c2,0,3.7,1.2,3.7,3.7v7.1h-1.4v-1.4c-.5.9-1.5,1.6-2.8,1.6h-.1ZM13,13.4c.1,1.4.9,2,2.2,2s2.8-1.2,2.8-3.3v-1.7h-2.5c-1.8,0-2.5.8-2.5,2.3v.7Z"/>
            <path class="cls-1" d="M25,16c-2.1,0-3.7-1.2-3.7-3.9v-7h1.4v7.2c0,2.1.8,3,2.4,3s2.8-1.4,2.8-3.4v-6.8h1.4v10.6h-1.4v-1.5c-.6,1.1-1.6,1.7-2.8,1.7h0Z"/>
            <path class="cls-1" d="M31.2,5.2h1.4v2.6c.4-1.4,1.5-2.6,3-2.6h.8v1.1h-.9c-1.7,0-2.8,1.3-2.8,4v5.5h-1.4V5.2h-.1Z"/>
            <path class="cls-1" d="M41.2,16h-.2c-2.3,0-4-1.5-4-4.6v-1.9c0-3.1,1.8-4.6,4-4.6h.2c2.3,0,4.1,1.3,4.1,4.1v1.1h-6.8v1.6c0,2.4.8,3.7,2.6,3.7s2.8-.8,2.8-2.5v-1.1h1.4v.8c0,2.4-1.8,3.5-4.1,3.5h0ZM43.8,8.3c0-1.9-1-2.8-2.7-2.8s-2.6,1.2-2.6,3.7v.4h5.3s0-1.3,0-1.3Z"/>
            <path class="cls-1" d="M48,13.3c0,1.4.7,2.1,2.6,2.1s2.6-.7,2.6-2h0c0-.9-.5-1.5-1.5-1.8l-2.2-.8c-1.8-.6-2.5-1.5-2.5-3h0c0-1.8,1.5-2.9,3.5-2.9h.2c2,0,3.5,1,3.5,2.9v.5h-1.3v-.8c0-1.4-.7-2.1-2.3-2.1s-2.4.7-2.4,2h0c0,.9.5,1.5,1.5,1.8l2.2.8c1.8.6,2.5,1.5,2.5,2.9h0c0,1.8-1.5,2.9-3.8,2.9h-.2c-2.3,0-3.8-1-3.8-2.9v-.7h1.4v1.1Z"/>
          </g>
        </g>
      </g>
    </g>
  </g>
</svg>