<?xml version="1.0" encoding="UTF-8"?><svg id="Layer_1" xmlns="http://www.w3.org/2000/svg" viewBox="0 0 27.59 9"><defs><style>.cls-1{fill:#fffef4;}</style></defs><path class="cls-1" d="M1.12,1.64,1.12,1.45v.18c.6,0,1.09.49,1.09,1.09s-.49,1.09-1.09,1.09v.18c.7,0,1.27-.57,1.27-1.27s-.57-1.27-1.27-1.27h0"/><path class="cls-1" d="M1.12,2.12,1.12,2.12c.33,0,.6.27.6.6s-.27.6-.6.6v.14c.41,0,.74-.33.74-.74s-.33-.74-.74-.74h0"/><path class="cls-1" d="M1.77.81c0,.7.57,1.27,1.27,1.27v-.18c-.6,0-1.09-.49-1.09-1.09h-.18Z"/><path class="cls-1" d="M2.3.81c0,.41.33.74.74.74v-.14c-.33,0-.6-.27-.6-.6h-.14Z"/><path class="cls-1" d="M4.13,3.57c-.47,0-.78-.23-.78-.64v-.03c0-.41.29-.63.86-.63h.53v-.32c0-.42-.16-.6-.49-.6s-.48.17-.48.55v.11h-.29v-.13c0-.43.35-.65.75-.65h.04c.44,0,.78.25.78.79v1.51h-.29v-.31c-.11.2-.31.35-.6.35h-.02ZM3.68,3.02c.02.29.2.42.48.42.34,0,.59-.26.59-.7v-.36h-.53c-.39,0-.54.16-.54.49v.15Z"/><path class="cls-1" d="M6.21,3.57c-.46,0-.8-.25-.8-.82v-1.48h.31v1.53c0,.46.17.64.5.64s.59-.29.59-.73v-1.44h.31v2.26h-.29v-.33c-.12.23-.35.37-.6.37h-.02Z"/><path class="cls-1" d="M7.54,1.27h.29v.55c.09-.3.32-.55.64-.55h.17v.23h-.2c-.37,0-.6.28-.6.85v1.17h-.3V1.27Z"/><path class="cls-1" d="M9.66,3.57h-.04c-.48,0-.86-.31-.86-.97v-.39c0-.66.37-.97.86-.97h.04c.49,0,.86.28.86.86v.24h-1.44v.34c0,.52.18.78.56.78s.59-.16.59-.54v-.24h.29v.17c0,.5-.39.73-.86.73ZM10.21,1.94c-.02-.4-.21-.59-.57-.59s-.56.26-.56.78v.08h1.13v-.27Z"/><path class="cls-1" d="M11.1,3c0,.3.16.44.54.44s.56-.16.56-.42v-.02c0-.18-.11-.29-.33-.37l-.46-.16c-.38-.13-.53-.33-.53-.63v-.02c0-.36.32-.6.75-.6h.04c.44,0,.75.22.75.62v.11h-.28v-.16c0-.3-.16-.44-.49-.44s-.51.16-.51.42v.02c0,.18.11.29.33.37l.48.16c.38.13.53.33.53.62v.03c0,.36-.33.6-.81.6h-.04c-.49,0-.81-.22-.81-.62v-.15h.29v.2Z"/></svg>