<?xml version="1.0" encoding="UTF-8"?>
<svg id="Layer_1" xmlns="http://www.w3.org/2000/svg" viewBox="0 0 79.5 23">
  <defs>
    <style>
      .cls-1 {
        fill: #021f3a;
      }
    </style>
  </defs>
  <g>
    <path class="cls-1" d="M.33,6.17.33,4.91v1.26c4.18,0,7.58,3.4,7.58,7.58s-3.4,7.58-7.58,7.58v1.26c4.88,0,8.84-3.96,8.84-8.84S5.22,4.91.33,4.91H.33"/>
    <path class="cls-1" d="M.33,9.57.33,9.57c2.31,0,4.18,1.88,4.18,4.18s-1.88,4.18-4.18,4.18v.95c2.83,0,5.13-2.3,5.13-5.13S3.17,8.62.33,8.62H.33"/>
    <path class="cls-1" d="M4.83.41c0,4.88,3.96,8.84,8.84,8.84v-1.26c-4.18,0-7.58-3.4-7.58-7.58h-1.26Z"/>
    <path class="cls-1" d="M8.54.41c0,2.83,2.3,5.13,5.13,5.13v-.95c-2.31,0-4.18-1.88-4.18-4.18h-.95Z"/>
  </g>
  <g>
    <path class="cls-1" d="M21.27,19.61c-3.28,0-5.42-1.57-5.42-4.48v-.2c0-2.85,2.02-4.39,5.96-4.39h3.68v-2.2c0-2.94-1.11-4.13-3.39-4.13s-3.31,1.17-3.31,3.79v.8h-2.02v-.91c0-2.99,2.42-4.53,5.19-4.53h.29c3.02,0,5.39,1.71,5.39,5.47v10.49h-2.02l-.06-2.14c-.71,1.4-2.11,2.42-4.13,2.42h-.14ZM18.1,15.82c.17,2.02,1.4,2.94,3.31,2.94,2.34,0,4.08-1.82,4.08-4.85v-2.51h-3.68c-2.68,0-3.73,1.11-3.73,3.39v.48l.03.54Z"/>
    <path class="cls-1" d="M35.72,19.61c-3.16,0-5.53-1.71-5.53-5.7V3.64h2.14v10.66c0,3.16,1.17,4.45,3.48,4.45s4.11-2,4.11-5.07V3.64h2.14v15.68h-2.02l-.06-2.28c-.77,1.62-2.37,2.57-4.11,2.57h-.14Z"/>
    <path class="cls-1" d="M44.9,3.64h2.02l.06,3.79c.6-2.11,2.14-3.79,4.36-3.79h1.2v1.6h-1.37c-2.54,0-4.19,1.94-4.19,5.93v8.15h-2.08V3.64Z"/>
    <path class="cls-1" d="M59.64,19.61h-.29c-3.36,0-5.96-2.17-5.96-6.76v-2.74c0-4.59,2.59-6.76,5.96-6.76h.29c3.42,0,5.99,1.97,5.99,5.99v1.68h-10.01v2.34c0,3.59,1.23,5.39,3.88,5.39s4.11-1.11,4.11-3.73v-1.68h2.02v1.17c0,3.51-2.68,5.1-5.99,5.1ZM63.49,8.29c-.14-2.77-1.45-4.08-3.99-4.08s-3.88,1.8-3.88,5.39v.57h7.87v-1.88Z"/>
    <path class="cls-1" d="M69.65,15.67c0,2.05,1.08,3.08,3.76,3.08s3.91-1.08,3.91-2.94v-.17c0-1.23-.77-2.02-2.28-2.54l-3.22-1.11c-2.65-.91-3.68-2.28-3.68-4.36v-.14c0-2.48,2.22-4.13,5.19-4.13h.29c3.02,0,5.22,1.51,5.22,4.28v.77h-1.97v-1.11c0-2.05-1.08-3.08-3.39-3.08s-3.53,1.08-3.53,2.94v.17c0,1.23.77,2.02,2.28,2.54l3.31,1.11c2.65.88,3.65,2.28,3.65,4.3v.2c0,2.48-2.28,4.13-5.62,4.13h-.29c-3.39,0-5.64-1.51-5.64-4.28v-1.05h2.02v1.4Z"/>
  </g>
</svg>